<svg width="451" height="269" viewBox="0 0 451 269" fill="none" xmlns="http://www.w3.org/2000/svg">
<g filter="url(#filter0_d)">
<path d="M185.441 40H199.601V71.02H218.561V82H185.441V40ZM251.679 74.68H235.719L232.899 82H218.499L236.859 40H250.779L269.139 82H254.499L251.679 74.68ZM247.779 64.48L243.699 53.92L239.619 64.48H247.779Z" fill="white"/>
<path d="M40.7442 113H54.9042V155H40.7442V113ZM103.121 113V155H91.4808L75.5208 135.92V155H61.7208V113H73.3608L89.3208 132.08V113H103.121ZM144.863 144.32V155H109.943V113H144.083V123.68H123.863V128.6H141.623V138.8H123.863V144.32H144.863ZM198.315 160.28C196.835 162.04 195.055 163.36 192.975 164.24C190.895 165.16 188.595 165.62 186.075 165.62C183.555 165.62 181.295 165.3 179.295 164.66C177.295 164.06 175.295 163.02 173.295 161.54C171.295 160.1 169.015 158.04 166.455 155.36C162.935 154.64 159.835 153.28 157.155 151.28C154.475 149.24 152.375 146.74 150.855 143.78C149.375 140.82 148.635 137.56 148.635 134C148.635 129.8 149.655 126.04 151.695 122.72C153.735 119.36 156.555 116.74 160.155 114.86C163.755 112.98 167.815 112.04 172.335 112.04C176.855 112.04 180.915 112.98 184.515 114.86C188.115 116.74 190.935 119.36 192.975 122.72C195.015 126.04 196.035 129.8 196.035 134C196.035 138.6 194.815 142.68 192.375 146.24C189.935 149.76 186.635 152.36 182.475 154.04C183.075 154.68 183.675 155.12 184.275 155.36C184.915 155.64 185.615 155.78 186.375 155.78C188.455 155.78 190.395 154.88 192.195 153.08L198.315 160.28ZM172.335 123.5C170.575 123.5 168.975 123.94 167.535 124.82C166.135 125.66 165.015 126.88 164.175 128.48C163.335 130.04 162.915 131.88 162.915 134C162.915 136.12 163.335 137.98 164.175 139.58C165.015 141.14 166.135 142.36 167.535 143.24C168.975 144.08 170.575 144.5 172.335 144.5C174.095 144.5 175.675 144.08 177.075 143.24C178.515 142.36 179.655 141.14 180.495 139.58C181.335 137.98 181.755 136.12 181.755 134C181.755 131.88 181.335 130.04 180.495 128.48C179.655 126.88 178.515 125.66 177.075 124.82C175.675 123.94 174.095 123.5 172.335 123.5ZM221.274 155.96C214.834 155.96 209.814 154.22 206.214 150.74C202.614 147.26 200.814 142.38 200.814 136.1V113H214.974V135.68C214.974 138.76 215.514 141 216.594 142.4C217.714 143.8 219.314 144.5 221.394 144.5C223.474 144.5 225.054 143.8 226.134 142.4C227.254 141 227.814 138.76 227.814 135.68V113H241.734V136.1C241.734 142.38 239.934 147.26 236.334 150.74C232.734 154.22 227.714 155.96 221.274 155.96ZM248.225 113H262.385V155H248.225V113ZM269.201 113H289.901C294.581 113 298.701 113.86 302.261 115.58C305.861 117.26 308.641 119.68 310.601 122.84C312.601 126 313.601 129.72 313.601 134C313.601 138.28 312.601 142 310.601 145.16C308.641 148.32 305.861 150.76 302.261 152.48C298.701 154.16 294.581 155 289.901 155H269.201V113ZM289.301 143.96C292.341 143.96 294.761 143.1 296.561 141.38C298.401 139.62 299.321 137.16 299.321 134C299.321 130.84 298.401 128.4 296.561 126.68C294.761 124.92 292.341 124.04 289.301 124.04H283.361V143.96H289.301ZM346.806 147.68H330.846L328.026 155H313.626L331.986 113H345.906L364.266 155H349.626L346.806 147.68ZM342.906 137.48L338.826 126.92L334.746 137.48H342.906ZM366.525 113H387.225C391.905 113 396.025 113.86 399.585 115.58C403.185 117.26 405.965 119.68 407.925 122.84C409.925 126 410.925 129.72 410.925 134C410.925 138.28 409.925 142 407.925 145.16C405.965 148.32 403.185 150.76 399.585 152.48C396.025 154.16 391.905 155 387.225 155H366.525V113ZM386.625 143.96C389.665 143.96 392.085 143.1 393.885 141.38C395.725 139.62 396.645 137.16 396.645 134C396.645 130.84 395.725 128.4 393.885 126.68C392.085 124.92 389.665 124.04 386.625 124.04H380.685V143.96H386.625Z" fill="#9700FF"/>
<path d="M71.7696 186H85.9296V217.02H104.89V228H71.7696V186ZM138.007 220.68H122.047L119.227 228H104.827L123.187 186H137.107L155.467 228H140.827L138.007 220.68ZM134.107 210.48L130.027 199.92L125.947 210.48H134.107ZM191.327 206.04C193.807 206.96 195.727 208.3 197.087 210.06C198.447 211.82 199.127 213.94 199.127 216.42C199.127 220.1 197.607 222.96 194.567 225C191.527 227 187.127 228 181.367 228H157.727V186H180.167C185.767 186 189.987 187 192.827 189C195.707 191 197.147 193.66 197.147 196.98C197.147 198.94 196.647 200.7 195.647 202.26C194.687 203.82 193.247 205.08 191.327 206.04ZM171.647 195.9V202.14H178.247C181.327 202.14 182.867 201.1 182.867 199.02C182.867 196.94 181.327 195.9 178.247 195.9H171.647ZM180.167 218.1C183.287 218.1 184.847 217 184.847 214.8C184.847 212.6 183.287 211.5 180.167 211.5H171.647V218.1H180.167ZM226.153 228.96C221.633 228.96 217.573 228.02 213.973 226.14C210.373 224.26 207.553 221.66 205.513 218.34C203.473 214.98 202.453 211.2 202.453 207C202.453 202.8 203.473 199.04 205.513 195.72C207.553 192.36 210.373 189.74 213.973 187.86C217.573 185.98 221.633 185.04 226.153 185.04C230.673 185.04 234.733 185.98 238.333 187.86C241.933 189.74 244.753 192.36 246.793 195.72C248.833 199.04 249.853 202.8 249.853 207C249.853 211.2 248.833 214.98 246.793 218.34C244.753 221.66 241.933 224.26 238.333 226.14C234.733 228.02 230.673 228.96 226.153 228.96ZM226.153 217.5C227.913 217.5 229.493 217.08 230.893 216.24C232.333 215.36 233.473 214.14 234.313 212.58C235.153 210.98 235.573 209.12 235.573 207C235.573 204.88 235.153 203.04 234.313 201.48C233.473 199.88 232.333 198.66 230.893 197.82C229.493 196.94 227.913 196.5 226.153 196.5C224.393 196.5 222.793 196.94 221.353 197.82C219.953 198.66 218.833 199.88 217.993 201.48C217.153 203.04 216.733 204.88 216.733 207C216.733 209.12 217.153 210.98 217.993 212.58C218.833 214.14 219.953 215.36 221.353 216.24C222.793 217.08 224.393 217.5 226.153 217.5ZM272.992 217.44H269.152V228H254.992V186H275.212C279.092 186 282.472 186.64 285.352 187.92C288.232 189.2 290.452 191.04 292.012 193.44C293.572 195.84 294.352 198.64 294.352 201.84C294.352 204.84 293.672 207.46 292.312 209.7C290.952 211.94 288.992 213.72 286.432 215.04L295.252 228H280.132L272.992 217.44ZM280.072 201.84C280.072 200.28 279.592 199.08 278.632 198.24C277.672 197.36 276.232 196.92 274.312 196.92H269.152V206.76H274.312C276.232 206.76 277.672 206.34 278.632 205.5C279.592 204.62 280.072 203.4 280.072 201.84ZM328.319 220.68H312.359L309.539 228H295.139L313.499 186H327.419L345.779 228H331.139L328.319 220.68ZM324.419 210.48L320.339 199.92L316.259 210.48H324.419ZM348.039 186H362.199V217.02H381.159V228H348.039V186Z" fill="#1E69FF"/>
</g>
<defs>
<filter id="filter0_d" x="0.744263" y="0" width="450.181" height="268.96" filterUnits="userSpaceOnUse" color-interpolation-filters="sRGB">
<feFlood flood-opacity="0" result="BackgroundImageFix"/>
<feColorMatrix in="SourceAlpha" type="matrix" values="0 0 0 0 0 0 0 0 0 0 0 0 0 0 0 0 0 0 127 0"/>
<feOffset/>
<feGaussianBlur stdDeviation="20"/>
<feColorMatrix type="matrix" values="0 0 0 0 0 0 0 0 0 0 0 0 0 0 0 0 0 0 0.21 0"/>
<feBlend mode="normal" in2="BackgroundImageFix" result="effect1_dropShadow"/>
<feBlend mode="normal" in="SourceGraphic" in2="effect1_dropShadow" result="shape"/>
</filter>
</defs>
</svg>
