<svg width="1099" height="657" viewBox="0 0 1099 657" fill="none" xmlns="http://www.w3.org/2000/svg">
<g clip-path="url(#clip0)">
<path d="M903.882 75.2368C777.601 -21.945 601.915 -25.9159 473.743 68.7717C405.988 118.827 353.461 195.407 363.018 312.009C366.395 353.253 375.796 387.088 389.512 414.787C445.063 527.073 673.228 522.749 685.899 522.733C694.109 522.724 702.318 522.908 710.528 523.282C739.283 524.6 767.887 528.211 796.066 534.079C836.242 542.44 887.389 546.64 933.088 530.806C940.852 528.128 948.397 524.853 955.654 521.01C980.767 507.686 1008.88 494.952 1025.31 463.349C1037.67 439.63 1046.66 409.889 1051 372.845C1066.76 237.939 987.998 139.97 903.882 75.2368Z" fill="#F2F2F2"/>
<path d="M711.08 558.739C910.511 558.739 1072.18 543.587 1072.18 524.897C1072.18 506.206 910.511 491.055 711.08 491.055C511.648 491.055 349.977 506.206 349.977 524.897C349.977 543.587 511.648 558.739 711.08 558.739Z" fill="#3F3D56"/>
<path opacity="0.1" d="M693.44 540.782C878.926 540.782 1029.29 533.67 1029.29 524.897C1029.29 516.124 878.926 509.012 693.44 509.012C507.953 509.012 357.586 516.124 357.586 524.897C357.586 533.67 507.953 540.782 693.44 540.782Z" fill="black"/>
<path d="M879.238 71.6589V109.626H829.729V523.688H933.053V125.387V109.626V71.6589H879.238Z" fill="#575A89"/>
<path d="M606.579 326.686V261.497H543.436V326.686H519.759V524.404H629.539V326.686H606.579Z" fill="#575A89"/>
<path d="M617.342 432.709H531.956V525.121H617.342V432.709Z" fill="#3F3D56"/>
<path opacity="0.1" d="M545.589 432.709H531.956V525.121H545.589V432.709Z" fill="black"/>
<path d="M793.136 50.8839V73.0913H666.85V50.8839H629.539V525.121H829.729V50.8839H793.136Z" fill="#3F3D56"/>
<path opacity="0.1" d="M821.119 50.8843H793.135V73.0917H821.119V50.8843Z" fill="black"/>
<path opacity="0.1" d="M657.523 50.8843H629.539V525.121H657.523V50.8843Z" fill="black"/>
<path d="M486.752 186.278V168.369H468.097V186.278H434.372V525.121H519.758V186.278H486.752Z" fill="#3F3D56"/>
<path opacity="0.1" d="M478.142 168.369H468.096V186.278H478.142V168.369Z" fill="black"/>
<path opacity="0.1" d="M444.418 186.278H434.373V525.121H444.418V186.278Z" fill="black"/>
<path opacity="0.1" d="M821.119 233.558H793.135V525.121H821.119V233.558Z" fill="black"/>
<path opacity="0.1" d="M519.758 186.278H493.927V248.602H519.758V186.278Z" fill="black"/>
<path d="M700.574 111.059H660.393V128.252H700.574V111.059Z" fill="#FF6584"/>
<path d="M785.96 288.002H745.778V305.195H785.96V288.002Z" fill="#FF6584"/>
<path d="M700.574 411.934H660.393V429.127H700.574V411.934Z" fill="#FF6584"/>
<path d="M497.515 263.646H457.333V280.839H497.515V263.646Z" fill="#FF6584"/>
<path d="M595.098 442.738H554.917V459.931H595.098V442.738Z" fill="#FF6584"/>
<path opacity="0.1" d="M609.449 341.73H540.566V370.385H609.449V341.73Z" fill="black"/>
<path opacity="0.1" d="M910.809 142.58H841.927V171.234H910.809V142.58Z" fill="black"/>
<path opacity="0.1" d="M910.809 203.471H841.927V232.126H910.809V203.471Z" fill="black"/>
<path opacity="0.1" d="M910.809 264.362H841.927V293.017H910.809V264.362Z" fill="black"/>
<path opacity="0.1" d="M910.809 325.254H841.927V353.908H910.809V325.254Z" fill="black"/>
<path opacity="0.1" d="M910.809 386.145H841.927V414.8H910.809V386.145Z" fill="black"/>
<path opacity="0.1" d="M910.809 447.036H841.927V475.691H910.809V447.036Z" fill="black"/>
<path d="M956.731 272.242V194.158H906.504V272.242H888.565V525.121H973.952V272.242H956.731Z" fill="#3F3D56"/>
<path opacity="0.1" d="M922.29 194.158H906.504V272.242H922.29V194.158Z" fill="black"/>
<path opacity="0.1" d="M904.352 272.242H888.566V525.121H904.352V272.242Z" fill="black"/>
<path opacity="0.1" d="M973.951 399.04H931.618V424.113H973.951V399.04Z" fill="black"/>
<path d="M973.234 361.789H933.053V378.981H973.234V361.789Z" fill="#FF6584"/>
<path d="M1099 379.146C1099 442.968 1061 465.252 1014.12 465.252C967.241 465.252 929.238 442.968 929.238 379.146C929.238 315.323 1014.12 234.131 1014.12 234.131C1014.12 234.131 1099 315.323 1099 379.146Z" fill="#9700FF"/>
<path d="M1011.03 455.489L1011.9 402.076L1048.07 335.996L1012.03 393.696L1012.42 369.679L1037.36 321.871L1012.53 363.325L1013.23 320.129L1039.93 282.067L1013.34 313.337L1013.78 234.131L1011.02 338.984L1011.25 334.659L984.1 293.174L1010.81 342.963L1008.28 391.205L1008.21 389.924L976.912 346.267L1008.11 394.448L1007.79 400.481L1007.74 400.571L1007.76 401.066L1001.35 523.461H1009.92L1010.95 460.241L1042.07 412.18L1011.03 455.489Z" fill="#3F3D56"/>
<path d="M476.913 379.836C476.913 443.658 438.91 465.943 392.032 465.943C345.153 465.943 307.151 443.658 307.151 379.836C307.151 316.014 392.032 234.822 392.032 234.822C392.032 234.822 476.913 316.014 476.913 379.836Z" fill="#9700FF"/>
<path d="M388.939 456.18L389.808 402.766L425.987 336.686L389.945 394.387L390.336 370.37L415.269 322.562L390.44 364.014V364.015L391.142 320.82L417.842 282.758L391.253 314.028L391.692 234.822L388.932 339.675L389.159 335.35L362.012 293.865L388.723 343.653L386.194 391.895L386.119 390.615L354.824 346.958L386.024 395.138L385.708 401.171L385.651 401.262L385.677 401.757L379.26 524.15H387.833L388.862 460.932L419.985 412.871L388.939 456.18Z" fill="#3F3D56"/>
<path d="M202.576 657C314.456 657 405.152 644.752 405.152 629.643C405.152 614.533 314.456 602.285 202.576 602.285C90.6964 602.285 0 614.533 0 629.643C0 644.752 90.6964 657 202.576 657Z" fill="#3F3D56"/>
<path opacity="0.1" d="M202.576 651.053C290.134 651.053 361.114 641.467 361.114 629.643C361.114 617.818 290.134 608.232 202.576 608.232C115.018 608.232 44.0383 617.818 44.0383 629.643C44.0383 641.467 115.018 651.053 202.576 651.053Z" fill="black"/>
<path d="M173.931 240.137C197.698 240.137 216.965 220.901 216.965 197.173C216.965 173.444 197.698 154.208 173.931 154.208C150.164 154.208 130.898 173.444 130.898 197.173C130.898 220.901 150.164 240.137 173.931 240.137Z" fill="#2F2E41"/>
<path d="M185.684 235.631C198.986 235.631 209.769 224.865 209.769 211.585C209.769 198.304 198.986 187.538 185.684 187.538C172.382 187.538 161.599 198.304 161.599 211.585C161.599 224.865 172.382 235.631 185.684 235.631Z" fill="#FFB9B9"/>
<path d="M172.213 224.219C172.213 224.219 178.336 238.892 168.947 242.967C159.558 247.043 163.232 271.089 163.232 271.089L199.972 263.346C199.972 263.346 199.972 253.156 192.624 248.673C185.276 244.19 202.421 224.219 202.421 224.219H172.213Z" fill="#FFB9B9"/>
<path d="M160.375 332.632L161.599 346.082L216.71 355.455L211.402 330.594L160.375 332.632Z" fill="#FFB9B9"/>
<path d="M159.558 440.637L161.599 497.696C161.599 497.696 151.802 520.927 159.558 563.722C167.314 606.516 161.599 618.336 161.599 618.336L189.358 622.004L187.725 606.109L181.194 592.252L184.051 513.184C184.051 513.184 196.706 483.839 197.114 478.133C197.523 472.427 196.298 430.855 196.298 430.855L159.558 440.637Z" fill="#FFB9B9"/>
<path opacity="0.1" d="M159.558 440.637L161.599 497.696C161.599 497.696 151.802 520.927 159.558 563.722C167.314 606.516 161.599 618.336 161.599 618.336L189.358 622.004L187.725 606.109L181.194 592.252L184.051 513.184C184.051 513.184 196.706 483.839 197.114 478.133C197.523 472.427 196.298 430.855 196.298 430.855L159.558 440.637Z" fill="black"/>
<path d="M168.13 598.773C168.13 598.773 168.13 593.474 165.681 593.067C163.232 592.659 159.966 591.436 159.966 593.067C159.966 594.697 159.558 606.109 158.741 607.739C157.925 609.369 156.292 615.483 157.517 617.928C157.517 617.928 153.843 627.302 156.7 628.117C159.558 628.933 175.887 628.932 175.887 628.932L176.703 624.449C176.703 624.449 213.035 635.861 220.791 625.672C220.791 625.672 224.465 618.336 217.934 616.706C217.934 616.706 203.238 617.113 197.931 611C192.624 604.886 182.418 590.621 182.418 590.621C182.418 590.621 174.254 591.844 175.07 597.142V598.773H168.13Z" fill="#2F2E41"/>
<path d="M182.01 441.86C182.01 441.86 186.092 470.389 200.38 491.175C200.38 491.175 207.728 508.293 206.504 513.591C205.279 518.89 205.279 547.827 217.526 573.504L228.956 611L234.671 624.449L244.468 628.525L260.389 629.748L251.408 611L246.918 601.218C246.918 601.218 238.753 584.508 238.753 569.835C238.753 555.163 233.446 520.52 233.446 520.52C233.446 520.52 233.446 442.267 224.874 437.376C216.301 432.486 182.01 441.86 182.01 441.86Z" fill="#FFB9B9"/>
<path d="M163.64 342.006L159.558 341.191V359.531C159.558 359.531 157.925 373.796 154.251 376.649C150.577 379.502 136.289 435.746 141.188 439.007C146.086 442.267 211.81 459.385 227.731 441.86L216.709 388.468C216.709 388.468 217.526 351.787 216.709 351.787C215.893 351.787 163.64 342.006 163.64 342.006Z" fill="#2F2E41"/>
<path d="M202.421 259.677C202.421 259.677 182.01 245.82 161.599 263.753C161.599 263.753 154.251 293.913 153.026 301.249C151.802 308.585 144.045 338.745 149.76 341.598C155.476 344.451 155.476 334.67 170.172 336.707C184.868 338.745 216.301 337.93 216.301 335.485C216.301 333.039 208.953 313.476 211.81 310.216C214.668 306.955 219.567 291.468 214.668 283.724C209.769 275.98 202.421 259.677 202.421 259.677Z" fill="#9700FF"/>
<path d="M175.887 342.006L216.709 361.161C216.709 361.161 233.038 381.947 236.712 370.128C240.386 358.309 224.465 349.75 224.465 349.75L197.114 334.262L175.887 341.191L175.887 342.006Z" fill="#FFB9B9"/>
<path opacity="0.1" d="M178.744 263.753C178.744 263.753 155.476 335.485 176.703 346.897C197.931 358.309 201.197 336.708 201.197 336.708C201.197 336.708 186.909 327.741 191.399 316.737C195.89 305.732 199.972 263.753 199.972 263.753L178.744 263.753Z" fill="black"/>
<path d="M177.52 261.308C177.52 261.308 154.251 333.039 175.478 344.451C196.706 355.863 199.972 334.262 199.972 334.262C199.972 334.262 185.684 325.296 190.175 314.291C194.665 303.287 198.747 261.308 198.747 261.308L177.52 261.308Z" fill="#9700FF"/>
<path d="M233.624 607.151C233.624 607.151 233.214 601.602 230.617 601.364C228.02 601.126 224.505 600.097 224.631 601.804C224.757 603.512 225.212 615.496 224.483 617.266C223.754 619.037 222.516 625.566 223.988 628.032C223.988 628.032 220.865 638.134 223.921 638.767C226.977 639.401 244.079 638.142 244.079 638.142L244.588 633.384C244.588 633.384 283.524 642.536 290.859 631.266C290.859 631.266 294.14 623.299 287.173 622.095C287.173 622.095 271.812 623.655 265.781 617.661C259.75 611.666 247.958 597.512 247.958 597.512C247.958 597.512 239.501 599.422 240.766 604.909L240.892 606.616L233.624 607.151Z" fill="#2F2E41"/>
<path d="M185.633 211.494C201.687 211.494 214.7 204.576 214.7 196.042C214.7 187.508 201.687 180.59 185.633 180.59C169.58 180.59 156.567 187.508 156.567 196.042C156.567 204.576 169.58 211.494 185.633 211.494Z" fill="#2F2E41"/>
<path d="M161.474 222.047C163.767 222.047 165.627 219.178 165.627 215.64C165.627 212.101 163.767 209.233 161.474 209.233C159.181 209.233 157.322 212.101 157.322 215.64C157.322 219.178 159.181 222.047 161.474 222.047Z" fill="#FFB9B9"/>
<path d="M147.507 174.56C158.765 174.56 167.892 165.448 167.892 154.208C167.892 142.969 158.765 133.857 147.507 133.857C136.249 133.857 127.123 142.969 127.123 154.208C127.123 165.448 136.249 174.56 147.507 174.56Z" fill="#2F2E41"/>
</g>
<defs>
<clipPath id="clip0">
<rect width="1099" height="657" fill="white"/>
</clipPath>
</defs>
</svg>
